# Blender v2.83.0 OBJ File: 'pool.blend'
# www.blender.org
mtllib pool.mtl
o Cube
v 8.024410 0.982764 -7.984754
v 8.000000 -7.366414 -8.000000
v 8.024410 0.982764 8.015246
v 8.000000 -7.366414 8.000000
v -8.000000 1.000000 -8.000000
v -8.000000 -7.366414 -8.000000
v -8.000000 1.000000 8.000000
v -8.000000 -7.366414 8.000000
v 4.000000 -7.366414 -8.000000
v 0.000000 -7.366414 -8.000000
v -4.000000 -7.366414 -8.000000
v 4.000000 1.000000 8.000000
v 0.000000 1.000000 8.000000
v -4.000000 1.000000 8.000000
v -4.000000 -7.366414 8.000000
v 0.000000 -7.366414 8.000000
v 4.000000 -7.366414 8.000000
v -4.000000 1.000000 -8.000000
v 0.000000 1.000000 -8.000000
v 4.000000 1.000000 -8.000000
v -8.000000 -7.366414 -6.114069
v 8.024410 0.982764 -6.098822
v -8.000000 1.000000 -6.114069
v 8.000000 -7.366414 -6.114069
v -4.000000 -7.366414 -6.114069
v 0.000000 -7.366414 -6.114069
v 4.000000 -7.366414 -6.114069
v -8.000000 -7.366414 -5.289220
v 8.024410 0.982764 -5.273974
v -4.000000 -7.366414 -5.289220
v 0.000000 -7.366414 -5.289220
v 4.000000 -7.366414 -5.289220
v -8.000000 1.000000 -5.289220
v 8.000000 -7.366414 -5.289220
v -6.393939 -7.366414 -8.000000
v -6.393939 1.000000 8.000000
v -6.393939 -7.366414 8.000000
v -6.393939 1.000000 -8.000000
v -6.393939 -7.366414 -6.114069
v -6.393939 -7.366414 -5.289220
v -5.645833 -7.366414 8.000000
v -5.645833 1.000000 -8.000000
v -5.645833 -7.366414 -8.000000
v -5.645833 1.000000 8.000000
v -5.645833 -7.366414 -6.114069
v -5.645833 -7.366414 -5.289220
v -2.393939 -7.366414 -8.000000
v -2.393939 1.000000 8.000000
v -2.393939 -7.366414 8.000000
v -2.393939 1.000000 -8.000000
v -2.393939 -7.366414 -6.114069
v -2.393939 -7.366414 -5.289220
v -1.556061 -7.366414 8.000000
v -1.556061 1.000000 -8.000000
v -1.556061 -7.366414 -8.000000
v -1.556061 1.000000 8.000000
v -1.556061 -7.366414 -6.114069
v -1.556061 -7.366414 -5.289220
v 1.515152 -7.366414 -8.000000
v 1.515152 1.000000 8.000000
v 1.515152 -7.366414 8.000000
v 1.515152 1.000000 -8.000000
v 1.515152 -7.366414 -6.114069
v 1.515152 -7.366414 -5.289220
v 2.333333 -7.366414 8.000000
v 2.333333 1.000000 -8.000000
v 2.333333 -7.366414 -8.000000
v 2.333333 1.000000 8.000000
v 2.333333 -7.366414 -6.114069
v 2.333333 -7.366414 -5.289220
v 5.651064 -7.366414 8.000000
v 5.693883 0.993172 -7.993961
v 5.651064 -7.366414 -8.000000
v 5.693883 0.993172 8.006040
v 5.651064 -7.366414 -6.114069
v 5.651064 -7.366414 -5.289220
v 6.495828 -7.366414 8.000000
v 6.564921 0.988983 -7.990255
v 6.495828 -7.366414 -8.000000
v 6.564921 0.988983 8.009747
v 6.495828 -7.366414 -6.114069
v 6.495828 -7.366414 -5.289220
v -7.196970 -7.366414 -8.000000
v -7.196970 1.000000 8.000000
v -7.196970 -7.366414 -6.114069
v -7.196970 -7.366414 -5.289220
v -7.196970 -7.366414 8.000000
v -7.196970 1.000000 -8.000000
v -4.822917 -7.366414 8.000000
v -4.822917 1.000000 -8.000000
v -4.822917 -7.366414 -8.000000
v -4.822917 1.000000 8.000000
v -4.822917 -7.366414 -6.114069
v -4.822917 -7.366414 -5.289220
v -3.196970 -7.366414 -8.000000
v -3.196970 1.000000 8.000000
v -3.196970 -7.366414 -6.114069
v -3.196970 -7.366414 -5.289220
v -3.196970 -7.366414 8.000000
v -3.196970 1.000000 -8.000000
v -0.778030 -7.366414 8.000000
v -0.778030 1.000000 -8.000000
v -0.778030 -7.366414 -8.000000
v -0.778030 1.000000 8.000000
v -0.778030 -7.366414 -6.114069
v -0.778030 -7.366414 -5.289220
v 0.757576 -7.366414 -8.000000
v 0.757576 1.000000 8.000000
v 0.757576 -7.366414 -6.114069
v 0.757576 -7.366414 -5.289220
v 0.757576 -7.366414 8.000000
v 0.757576 1.000000 -8.000000
v 3.166667 -7.366414 8.000000
v 3.166667 1.000000 -8.000000
v 3.166667 -7.366414 -8.000000
v 3.166667 1.000000 8.000000
v 3.166667 -7.366414 -6.114069
v 3.166667 -7.366414 -5.289220
v 4.792248 -7.366414 -8.000000
v 4.816889 0.996586 8.003019
v 4.792248 -7.366414 -6.114069
v 4.792248 -7.366414 -5.289220
v 4.792248 -7.366414 8.000000
v 4.816889 0.996586 -7.996981
v 7.278383 -7.366414 8.000000
v 7.380349 0.985873 -7.987504
v 7.278383 -7.366414 -8.000000
v 7.380349 0.985873 8.012497
v 7.278383 -7.366414 -6.114069
v 7.278383 -7.366414 -5.289220
vt 0.283264 0.447762
vt 0.290520 0.452973
vt 0.467003 0.212083
vt 0.460208 0.207085
vt 0.301461 0.552005
vt 0.299176 0.555081
vt 0.474653 0.686248
vt 0.476934 0.683179
vt 0.244553 0.514851
vt 0.237535 0.509413
vt 0.057575 0.748066
vt 0.064300 0.753137
vt 0.291849 0.458392
vt 0.342623 0.496662
vt 0.344783 0.493769
vt 0.294056 0.455587
vt 0.519727 0.249950
vt 0.471209 0.215155
vt 0.281129 0.450692
vt 0.107311 0.316897
vt 0.104921 0.319886
vt 0.246692 0.497168
vt 0.249023 0.494050
vt 0.072536 0.362690
vt 0.070254 0.365773
vt 0.258153 0.481641
vt 0.260395 0.478589
vt 0.083942 0.347274
vt 0.081662 0.350357
vt 0.269618 0.466406
vt 0.271964 0.463261
vt 0.095344 0.331856
vt 0.093064 0.334938
vt 0.257117 0.504968
vt 0.308255 0.542845
vt 0.310567 0.539731
vt 0.259465 0.501794
vt 0.268668 0.489377
vt 0.319735 0.527419
vt 0.321987 0.524392
vt 0.270900 0.486372
vt 0.279986 0.474186
vt 0.331026 0.512161
vt 0.333354 0.509031
vt 0.282367 0.470997
vt 0.335625 0.505978
vt 0.508844 0.640251
vt 0.511021 0.637110
vt 0.324201 0.521403
vt 0.497445 0.655581
vt 0.499723 0.652515
vt 0.312853 0.536654
vt 0.486050 0.670914
vt 0.488329 0.667847
vt 0.253932 0.502601
vt 0.256285 0.499436
vt 0.265480 0.487017
vt 0.267712 0.484005
vt 0.276827 0.471822
vt 0.279206 0.468638
vt 0.288504 0.455947
vt 0.248065 0.517510
vt 0.068468 0.756265
vt 0.115668 0.792915
vt 0.583019 0.902050
vt 0.603386 0.902050
vt 0.603386 0.882221
vt 0.583019 0.882221
vt 0.239824 0.506328
vt 0.247022 0.511774
vt 0.249387 0.508671
vt 0.242118 0.503241
vt 0.250345 0.514235
vt 0.303747 0.548929
vt 0.252631 0.511064
vt 0.065693 0.371939
vt 0.063411 0.375022
vt 0.305947 0.545962
vt 0.479213 0.680113
vt 0.481490 0.677046
vt 0.483770 0.673980
vt 0.603386 0.863748
vt 0.583019 0.863748
vt 0.251564 0.505771
vt 0.244338 0.500271
vt 0.931533 0.882221
vt 0.931533 0.863748
vt 0.067972 0.368856
vt 0.642749 0.782517
vt 0.642749 0.762149
vt 0.622920 0.762149
vt 0.622920 0.782517
vt 0.251313 0.490960
vt 0.258579 0.496345
vt 0.260871 0.493253
vt 0.253602 0.487869
vt 0.317480 0.530443
vt 0.315141 0.533578
vt 0.490609 0.664781
vt 0.492889 0.661715
vt 0.261757 0.498700
vt 0.264049 0.495607
vt 0.077099 0.356523
vt 0.074818 0.359607
vt 0.495167 0.658648
vt 0.602230 0.762149
vt 0.602230 0.782517
vt 0.263256 0.490027
vt 0.255927 0.484704
vt 0.622920 0.434001
vt 0.602230 0.434001
vt 0.079382 0.353441
vt 0.931536 0.783229
vt 0.911169 0.783229
vt 0.911168 0.801935
vt 0.931536 0.801935
vt 0.262624 0.475591
vt 0.269895 0.481071
vt 0.272085 0.478147
vt 0.264881 0.472614
vt 0.328704 0.515296
vt 0.326409 0.518409
vt 0.502002 0.649448
vt 0.504282 0.646383
vt 0.273077 0.483446
vt 0.275255 0.480524
vt 0.088501 0.341106
vt 0.086222 0.344190
vt 0.506563 0.643317
vt 0.911169 0.822139
vt 0.931536 0.822139
vt 0.274440 0.475008
vt 0.267248 0.469531
vt 0.583019 0.801936
vt 0.583019 0.822138
vt 0.090782 0.338022
vt 0.726845 0.776569
vt 0.726845 0.756201
vt 0.705638 0.756201
vt 0.705638 0.776569
vt 0.274249 0.460193
vt 0.281470 0.465602
vt 0.283910 0.462310
vt 0.276617 0.456996
vt 0.340352 0.499681
vt 0.337993 0.502814
vt 0.513206 0.633978
vt 0.515368 0.630831
vt 0.100129 0.325864
vt 0.097741 0.328865
vt 0.284635 0.467965
vt 0.287100 0.464676
vt 0.517553 0.627705
vt 0.684778 0.756201
vt 0.684778 0.776569
vt 0.286296 0.459043
vt 0.278924 0.453790
vt 0.102538 0.322883
vt 0.705638 0.428052
vt 0.684778 0.428052
vt 0.061130 0.378104
vt 0.603386 0.843428
vt 0.583019 0.843428
vt 0.254765 0.508153
vt 0.583019 0.762149
vt 0.583019 0.782517
vt 0.266441 0.492379
vt 0.911168 0.842716
vt 0.931536 0.842716
vt 0.277602 0.477379
vt 0.519727 0.624574
vt 0.665455 0.756201
vt 0.665455 0.776569
vt 0.289545 0.461423
vn -1.0000 0.0029 0.0000
vn 0.0000 0.0000 -1.0000
vn 1.0000 0.0000 0.0000
vn 0.0000 1.0000 0.0000
vn -0.0020 -0.0016 1.0000
vn 0.0000 0.0000 1.0000
vn 0.0019 0.0002 -1.0000
vn 0.0022 0.0009 -1.0000
vn -0.0017 -0.0005 1.0000
vn 0.0017 0.0013 -1.0000
vn -0.0022 -0.0009 1.0000
vn -0.0019 -0.0002 1.0000
vn 0.0017 0.0005 -1.0000
vn 0.0020 0.0016 -1.0000
vn -0.0017 -0.0013 1.0000
usemtl Material
s off
f 2/1/1 24/2/1 22/3/1 1/4/1
f 87/5/2 8/6/2 7/7/2 84/8/2
f 21/9/3 6/10/3 5/11/3 23/12/3
f 130/13/4 125/14/4 4/15/4 34/16/4
f 34/16/1 4/15/1 3/17/1 29/18/1
f 127/19/5 2/1/5 1/20/5 126/21/5
f 91/22/6 11/23/6 18/24/6 90/25/6
f 103/26/6 10/27/6 19/28/6 102/29/6
f 115/30/6 9/31/6 20/32/6 114/33/6
f 94/34/4 89/35/4 15/36/4 30/37/4
f 106/38/4 101/39/4 16/40/4 31/41/4
f 118/42/4 113/43/4 17/44/4 32/45/4
f 123/46/7 17/44/7 12/47/7 120/48/7
f 111/49/2 16/40/2 13/50/2 108/51/2
f 99/52/2 15/36/2 14/53/2 96/54/2
f 91/22/4 93/55/4 25/56/4 11/23/4
f 103/26/4 105/57/4 26/58/4 10/27/4
f 115/30/4 117/59/4 27/60/4 9/31/4
f 127/19/4 129/61/4 24/2/4 2/1/4
f 28/62/3 21/9/3 23/12/3 33/63/3
f 8/6/3 28/62/3 33/63/3 7/64/3
f 117/59/4 118/42/4 32/45/4 27/60/4
f 105/57/4 106/38/4 31/41/4 26/58/4
f 93/55/4 94/34/4 30/37/4 25/56/4
f 24/2/1 34/16/1 29/18/1 22/3/1
f 129/61/4 130/13/4 34/16/4 24/2/4
f 85/65/4 86/66/4 40/67/4 39/68/4
f 83/69/4 85/70/4 39/71/4 35/72/4
f 86/73/4 87/5/4 37/74/4 40/75/4
f 83/69/6 35/72/6 38/76/6 88/77/6
f 41/78/2 37/74/2 36/79/2 44/80/2
f 89/35/2 41/78/2 44/80/2 92/81/2
f 39/68/4 40/67/4 46/82/4 45/83/4
f 35/72/4 39/71/4 45/84/4 43/85/4
f 40/67/4 37/86/4 41/87/4 46/82/4
f 35/72/6 43/85/6 42/88/6 38/76/6
f 97/89/4 98/90/4 52/91/4 51/92/4
f 95/93/4 97/94/4 51/95/4 47/96/4
f 53/97/2 49/98/2 48/99/2 56/100/2
f 98/101/4 99/52/4 49/98/4 52/102/4
f 95/93/6 47/96/6 50/103/6 100/104/6
f 101/39/2 53/97/2 56/100/2 104/105/2
f 51/92/4 52/91/4 58/106/4 57/107/4
f 47/96/4 51/95/4 57/108/4 55/109/4
f 52/91/4 49/110/4 53/111/4 58/106/4
f 47/96/6 55/109/6 54/112/6 50/103/6
f 109/113/4 110/114/4 64/115/4 63/116/4
f 107/117/4 109/118/4 63/119/4 59/120/4
f 65/121/2 61/122/2 60/123/2 68/124/2
f 110/125/4 111/49/4 61/122/4 64/126/4
f 107/117/6 59/120/6 62/127/6 112/128/6
f 113/43/2 65/121/2 68/124/2 116/129/2
f 63/116/4 64/115/4 70/130/4 69/131/4
f 59/120/4 63/119/4 69/132/4 67/133/4
f 64/115/4 61/134/4 65/135/4 70/130/4
f 59/120/6 67/133/6 66/136/6 62/127/6
f 121/137/4 122/138/4 76/139/4 75/140/4
f 119/141/4 121/142/4 75/143/4 73/144/4
f 77/145/8 71/146/8 74/147/8 80/148/8
f 119/141/9 73/144/9 72/149/9 124/150/9
f 122/151/4 123/46/4 71/146/4 76/152/4
f 125/14/10 77/145/10 80/148/10 128/153/10
f 75/140/4 76/139/4 82/154/4 81/155/4
f 73/144/4 75/143/4 81/156/4 79/157/4
f 73/144/11 79/157/11 78/158/11 72/149/11
f 76/139/4 71/159/4 77/160/4 82/154/4
f 6/10/6 83/69/6 88/77/6 5/161/6
f 28/62/4 8/6/4 87/5/4 86/73/4
f 6/10/4 21/9/4 85/70/4 83/69/4
f 21/9/4 28/62/4 86/73/4 85/70/4
f 37/74/2 87/5/2 84/8/2 36/79/2
f 15/36/2 89/35/2 92/81/2 14/53/2
f 45/83/4 46/82/4 94/162/4 93/163/4
f 43/85/4 45/84/4 93/55/4 91/22/4
f 46/164/4 41/78/4 89/35/4 94/34/4
f 43/85/6 91/22/6 90/25/6 42/88/6
f 11/23/6 95/93/6 100/104/6 18/24/6
f 30/37/4 15/36/4 99/52/4 98/101/4
f 11/23/4 25/56/4 97/94/4 95/93/4
f 25/56/4 30/37/4 98/101/4 97/94/4
f 49/98/2 99/52/2 96/54/2 48/99/2
f 16/40/2 101/39/2 104/105/2 13/50/2
f 57/107/4 58/106/4 106/165/4 105/166/4
f 55/109/4 57/108/4 105/57/4 103/26/4
f 58/167/4 53/97/4 101/39/4 106/38/4
f 55/109/6 103/26/6 102/29/6 54/112/6
f 10/27/6 107/117/6 112/128/6 19/28/6
f 31/41/4 16/40/4 111/49/4 110/125/4
f 10/27/4 26/58/4 109/118/4 107/117/4
f 26/58/4 31/41/4 110/125/4 109/118/4
f 61/122/2 111/49/2 108/51/2 60/123/2
f 17/44/2 113/43/2 116/129/2 12/47/2
f 69/131/4 70/130/4 118/168/4 117/169/4
f 67/133/4 69/132/4 117/59/4 115/30/4
f 70/170/4 65/121/4 113/43/4 118/42/4
f 67/133/6 115/30/6 114/33/6 66/136/6
f 32/45/4 17/44/4 123/46/4 122/151/4
f 9/31/12 119/141/12 124/150/12 20/32/12
f 9/31/4 27/60/4 121/142/4 119/141/4
f 27/60/4 32/45/4 122/151/4 121/142/4
f 71/146/13 123/46/13 120/48/13 74/147/13
f 4/15/14 125/14/14 128/153/14 3/171/14
f 81/155/4 82/154/4 130/172/4 129/173/4
f 79/157/4 81/156/4 129/61/4 127/19/4
f 79/157/15 127/19/15 126/21/15 78/158/15
f 82/174/4 77/145/4 125/14/4 130/13/4
