# Blender v2.83.0 OBJ File: 'pool.blend'
# www.blender.org
mtllib pool.mtl
o Cube
v 8.024410 0.982764 -7.984754
v 8.024410 0.982764 8.015246
v -8.000000 1.000000 -8.000000
v -8.000000 1.000000 8.000000
v 4.000000 1.000000 8.000000
v 0.000000 1.000000 8.000000
v -4.000000 1.000000 8.000000
v -4.000000 1.000000 -8.000000
v 0.000000 1.000000 -8.000000
v 4.000000 1.000000 -8.000000
v 8.024410 0.982764 -6.098822
v -8.000000 1.000000 -6.114069
v -4.000000 -7.366414 -6.114069
v 0.000000 -7.366414 -6.114069
v 4.000000 -7.366414 -6.114069
v 8.024410 0.982764 -5.273974
v -4.000000 -7.366414 -5.289220
v 0.000000 -7.366414 -5.289220
v 4.000000 -7.366414 -5.289220
v -8.000000 1.000000 -5.289220
v -6.393939 1.000000 8.000000
v -6.393939 1.000000 -8.000000
v -6.393939 -7.366414 -6.114069
v -6.393939 -7.366414 -5.289220
v -5.645833 1.000000 -8.000000
v -5.645833 1.000000 8.000000
v -5.645833 -7.366414 -6.114069
v -5.645833 -7.366414 -5.289220
v -2.393939 1.000000 8.000000
v -2.393939 1.000000 -8.000000
v -2.393939 -7.366414 -6.114069
v -2.393939 -7.366414 -5.289220
v -1.556061 1.000000 -8.000000
v -1.556061 1.000000 8.000000
v -1.556061 -7.366414 -6.114069
v -1.556061 -7.366414 -5.289220
v 1.515152 1.000000 8.000000
v 1.515152 1.000000 -8.000000
v 1.515152 -7.366414 -6.114069
v 1.515152 -7.366414 -5.289220
v 2.333333 1.000000 -8.000000
v 2.333333 1.000000 8.000000
v 2.333333 -7.366414 -6.114069
v 2.333333 -7.366414 -5.289220
v 5.693883 0.993172 -7.993961
v 5.693883 0.993172 8.006040
v 5.651064 -7.366414 -6.114069
v 5.651064 -7.366414 -5.289220
v 6.564921 0.988983 -7.990255
v 6.564921 0.988983 8.009747
v 6.495828 -7.366414 -6.114069
v 6.495828 -7.366414 -5.289220
v -7.196970 1.000000 8.000000
v -7.196970 -7.366414 -6.114069
v -7.196970 -7.366414 -5.289220
v -7.196970 1.000000 -8.000000
v -4.822917 1.000000 -8.000000
v -4.822917 1.000000 8.000000
v -4.822917 -7.366414 -6.114069
v -4.822917 -7.366414 -5.289220
v -3.196970 1.000000 8.000000
v -3.196970 -7.366414 -6.114069
v -3.196970 -7.366414 -5.289220
v -3.196970 1.000000 -8.000000
v -0.778030 1.000000 -8.000000
v -0.778030 1.000000 8.000000
v -0.778030 -7.366414 -6.114069
v -0.778030 -7.366414 -5.289220
v 0.757576 1.000000 8.000000
v 0.757576 -7.366414 -6.114069
v 0.757576 -7.366414 -5.289220
v 0.757576 1.000000 -8.000000
v 3.166667 1.000000 -8.000000
v 3.166667 1.000000 8.000000
v 3.166667 -7.366414 -6.114069
v 3.166667 -7.366414 -5.289220
v 4.816889 0.996586 8.003019
v 4.792248 -7.366414 -6.114069
v 4.792248 -7.366414 -5.289220
v 4.816889 0.996586 -7.996981
v 7.380349 0.985873 -7.987504
v 7.380349 0.985873 8.012497
v 7.278383 -7.366414 -6.114069
v 7.278383 -7.366414 -5.289220
v 7.588952 -7.366414 -7.588952
v 8.000151 -6.765728 -7.999906
v 7.588952 -7.366414 7.588952
v 8.000151 -6.765728 8.000093
v -7.588952 -7.366414 -7.588952
v -8.000000 -6.765728 -8.000000
v -7.588952 -7.366414 7.588952
v -8.000000 -6.765728 8.000000
v 4.000000 -6.765728 -8.000000
v 4.000000 -7.366414 -7.588952
v 0.000000 -6.765728 -8.000000
v 0.000000 -7.366414 -7.588952
v -4.000000 -6.765728 -8.000000
v -4.000000 -7.366414 -7.588952
v -4.000000 -6.765728 8.000000
v -4.000000 -7.366414 7.588952
v 0.000000 -6.765728 8.000000
v 0.000000 -7.366414 7.588952
v 4.000000 -6.765728 8.000000
v 4.000000 -7.366414 7.588952
v -8.000000 -6.765728 -6.114069
v -7.588952 -7.366414 -6.114069
v 7.588952 -7.366414 -6.114069
v 8.000151 -6.765728 -6.113975
v -7.588952 -7.366414 -5.289220
v -8.000000 -6.765728 -5.289220
v 7.588952 -7.366414 -5.289220
v 8.000151 -6.765728 -5.289126
v -6.393939 -6.765728 -8.000000
v -6.393939 -7.366414 -7.588952
v -6.393939 -6.765728 8.000000
v -6.393939 -7.366414 7.588952
v -5.645833 -6.765728 8.000000
v -5.645833 -7.366414 7.588952
v -5.645833 -7.366414 -7.588952
v -5.645833 -6.765728 -8.000000
v -2.393939 -6.765728 -8.000000
v -2.393939 -7.366414 -7.588952
v -2.393939 -6.765728 8.000000
v -2.393939 -7.366414 7.588952
v -1.556061 -6.765728 8.000000
v -1.556061 -7.366414 7.588952
v -1.556061 -7.366414 -7.588952
v -1.556061 -6.765728 -8.000000
v 1.515152 -6.765728 -8.000000
v 1.515152 -7.366414 -7.588952
v 1.515152 -6.765728 8.000000
v 1.515152 -7.366414 7.588952
v 2.333333 -6.765728 8.000000
v 2.333333 -7.366414 7.588952
v 2.333333 -7.366414 -7.588952
v 2.333333 -6.765728 -8.000000
v 5.651327 -6.765728 8.000037
v 5.651064 -7.366414 7.588952
v 5.651327 -6.765728 -7.999963
v 5.651064 -7.366414 -7.588952
v 6.496253 -6.765728 8.000060
v 6.495828 -7.366414 7.588952
v 6.495828 -7.366414 -7.588952
v 6.496253 -6.765728 -7.999940
v -7.196970 -7.366414 -7.588952
v -7.196970 -6.765728 -8.000000
v -7.196970 -7.366414 7.588952
v -7.196970 -6.765728 8.000000
v -4.822917 -7.366414 7.588952
v -4.822917 -6.765728 8.000000
v -4.822917 -7.366414 -7.588952
v -4.822917 -6.765728 -8.000000
v -3.196970 -7.366414 -7.588952
v -3.196970 -6.765728 -8.000000
v -3.196970 -7.366414 7.588952
v -3.196970 -6.765728 8.000000
v -0.778030 -7.366414 7.588952
v -0.778030 -6.765728 8.000000
v -0.778030 -7.366414 -7.588952
v -0.778030 -6.765728 -8.000000
v 0.757576 -7.366414 -7.588952
v 0.757576 -6.765728 -8.000000
v 0.757576 -7.366414 7.588952
v 0.757576 -6.765728 8.000000
v 3.166667 -7.366414 7.588952
v 3.166667 -6.765728 8.000000
v 3.166667 -7.366414 -7.588952
v 3.166667 -6.765728 -8.000000
v 4.792248 -7.366414 -7.588952
v 4.792399 -6.765728 -7.999981
v 4.792248 -7.366414 7.588952
v 4.792399 -6.765728 8.000018
v 7.278383 -7.366414 7.588952
v 7.279010 -6.765728 8.000077
v 7.278383 -7.366414 -7.588952
v 7.279010 -6.765728 -7.999923
vt 0.282737 0.451838
vt 0.288504 0.455947
vt 0.289372 0.454667
vt 0.283644 0.450572
vt 0.273543 0.464433
vt 0.279206 0.468638
vt 0.281470 0.465602
vt 0.275823 0.461372
vt 0.249232 0.515834
vt 0.298765 0.552341
vt 0.299880 0.550837
vt 0.250345 0.514235
vt 0.295146 0.454107
vt 0.345860 0.492268
vt 0.519727 0.249950
vt 0.471209 0.215155
vt 0.240256 0.509020
vt 0.245817 0.513276
vt 0.247022 0.511774
vt 0.241393 0.507515
vt 0.284353 0.446281
vt 0.291606 0.451491
vt 0.467003 0.212083
vt 0.460208 0.207085
vt 0.311645 0.540537
vt 0.309333 0.543651
vt 0.483770 0.673980
vt 0.486050 0.670914
vt 0.250606 0.495224
vt 0.256285 0.499436
vt 0.258579 0.496345
vt 0.252897 0.492134
vt 0.261990 0.479769
vt 0.267712 0.484005
vt 0.269895 0.481071
vt 0.264208 0.476786
vt 0.313931 0.537460
vt 0.488329 0.667847
vt 0.325279 0.522208
vt 0.323064 0.525197
vt 0.497445 0.655581
vt 0.499723 0.652515
vt 0.336703 0.506784
vt 0.334432 0.509837
vt 0.508844 0.640251
vt 0.511021 0.637110
vt 0.282367 0.470997
vt 0.331777 0.507854
vt 0.334048 0.504802
vt 0.284635 0.467965
vt 0.270900 0.486372
vt 0.320407 0.523216
vt 0.322620 0.520229
vt 0.273077 0.483446
vt 0.259465 0.501794
vt 0.308986 0.538557
vt 0.311273 0.535480
vt 0.261757 0.498700
vt 0.247939 0.493244
vt 0.250229 0.490153
vt 0.074818 0.359607
vt 0.072536 0.362690
vt 0.259311 0.477782
vt 0.261540 0.474784
vt 0.086222 0.344190
vt 0.083942 0.347274
vt 0.270880 0.462454
vt 0.273165 0.459386
vt 0.097741 0.328865
vt 0.095344 0.331856
vt 0.345860 0.494574
vt 0.343699 0.497469
vt 0.517553 0.627705
vt 0.519727 0.624574
vt 0.291849 0.458392
vt 0.292798 0.457185
vt 0.302539 0.552811
vt 0.300254 0.555886
vt 0.474653 0.686248
vt 0.476934 0.683179
vt 0.276827 0.471822
vt 0.279986 0.474186
vt 0.265480 0.487017
vt 0.268668 0.489377
vt 0.253932 0.502601
vt 0.257117 0.504968
vt 0.241035 0.502434
vt 0.243255 0.499464
vt 0.067972 0.368856
vt 0.065693 0.371939
vt 0.583019 0.902050
vt 0.603386 0.902050
vt 0.603386 0.882221
vt 0.583019 0.882221
vt 0.304824 0.549735
vt 0.479213 0.680113
vt 0.307025 0.546767
vt 0.481490 0.677046
vt 0.249387 0.508671
vt 0.243703 0.504424
vt 0.921383 0.882221
vt 0.921383 0.863748
vt 0.603386 0.863748
vt 0.254765 0.508153
vt 0.304364 0.544793
vt 0.306673 0.541674
vt 0.583019 0.863748
vt 0.238740 0.505521
vt 0.063411 0.375022
vt 0.251564 0.505771
vt 0.245913 0.501469
vt 0.642749 0.782517
vt 0.642749 0.762149
vt 0.622920 0.762149
vt 0.622920 0.782517
vt 0.316218 0.534384
vt 0.490609 0.664781
vt 0.313560 0.532404
vt 0.264049 0.495607
vt 0.622920 0.444151
vt 0.602230 0.444151
vt 0.602230 0.762149
vt 0.260871 0.493253
vt 0.255186 0.489042
vt 0.266441 0.492379
vt 0.315902 0.529266
vt 0.318156 0.526242
vt 0.602230 0.782517
vt 0.252518 0.487062
vt 0.077099 0.356523
vt 0.320813 0.528225
vt 0.318558 0.531249
vt 0.492889 0.661715
vt 0.495167 0.658648
vt 0.263256 0.490027
vt 0.257525 0.485864
vt 0.931536 0.783229
vt 0.911169 0.783229
vt 0.911168 0.801935
vt 0.931536 0.801935
vt 0.327487 0.519214
vt 0.502002 0.649448
vt 0.324826 0.517238
vt 0.275255 0.480524
vt 0.593169 0.801936
vt 0.593169 0.822138
vt 0.911169 0.822139
vt 0.272085 0.478147
vt 0.266451 0.473820
vt 0.277602 0.477379
vt 0.327123 0.514124
vt 0.329447 0.510987
vt 0.931536 0.822139
vt 0.263798 0.471807
vt 0.088501 0.341106
vt 0.332104 0.512967
vt 0.329782 0.516101
vt 0.504282 0.646383
vt 0.506563 0.643317
vt 0.274440 0.475008
vt 0.268816 0.470725
vt 0.726845 0.776569
vt 0.726845 0.756201
vt 0.705638 0.756201
vt 0.705638 0.776569
vt 0.341428 0.500487
vt 0.515368 0.630831
vt 0.336419 0.501634
vt 0.287100 0.464676
vt 0.283910 0.462310
vt 0.278206 0.458154
vt 0.705638 0.438202
vt 0.684778 0.438202
vt 0.684778 0.756201
vt 0.289545 0.461423
vt 0.338780 0.498497
vt 0.341052 0.495479
vt 0.684778 0.776569
vt 0.275532 0.456190
vt 0.100129 0.325864
vt 0.286296 0.459043
vt 0.280530 0.454935
vt 0.277839 0.452985
vt 0.102538 0.322883
vt 0.243446 0.516314
vt 0.236430 0.510878
vt 0.057575 0.748066
vt 0.064300 0.753137
vt 0.298049 0.556541
vt 0.246962 0.518977
vt 0.068468 0.756265
vt 0.115668 0.792915
vt 0.236452 0.508606
vt 0.061130 0.378104
vt 0.302166 0.547758
vt 0.252631 0.511064
vt 0.603386 0.843428
vt 0.583019 0.843428
vt 0.254843 0.483897
vt 0.079382 0.353441
vt 0.245608 0.496361
vt 0.070254 0.365773
vt 0.248270 0.498352
vt 0.583019 0.762149
vt 0.583019 0.782517
vt 0.266164 0.468723
vt 0.090782 0.338022
vt 0.257069 0.480835
vt 0.081662 0.350357
vt 0.259750 0.482813
vt 0.911168 0.842716
vt 0.931536 0.842716
vt 0.339070 0.503620
vt 0.513206 0.633978
vt 0.268533 0.465598
vt 0.093064 0.334938
vt 0.271189 0.467586
vt 0.341983 0.494235
vt 0.665455 0.756201
vt 0.665455 0.776569
vt 0.280045 0.449888
vt 0.104921 0.319886
vt 0.282181 0.446957
vt 0.107311 0.316897
vt 0.305947 0.545962
vt 0.303747 0.548929
vt 0.317480 0.530443
vt 0.315141 0.533578
vt 0.328704 0.515296
vt 0.326409 0.518409
vt 0.340352 0.499681
vt 0.337993 0.502814
vn 0.0000 1.0000 0.0000
vn -1.0000 0.0031 0.0000
vn 0.0000 0.0000 -1.0000
vn 0.0019 0.0002 -1.0000
vn 0.0000 0.0000 1.0000
vn -0.0019 -0.0002 1.0000
vn 0.0020 0.0018 -1.0000
vn 0.0017 0.0014 -1.0000
vn -0.0018 -0.0006 1.0000
vn -0.0022 -0.0010 1.0000
vn 1.0000 0.0000 0.0000
vn 0.0018 0.0006 -1.0000
vn 0.0022 0.0010 -1.0000
vn -0.0017 -0.0014 1.0000
vn -0.0020 -0.0018 1.0000
vn 0.9553 0.2956 0.0000
vn 0.6683 0.3265 -0.6683
vn 0.3725 0.8499 -0.3725
vn 0.4665 0.8845 0.0000
vn 0.0000 0.2956 0.9553
vn 0.6683 0.3265 0.6683
vn 0.3725 0.8499 0.3725
vn 0.0000 0.8845 0.4665
vn 0.0010 0.2964 -0.9550
vn -0.6673 0.3283 -0.6685
vn -0.3724 0.8500 -0.3725
vn 0.0000 0.8845 -0.4664
vn -0.9548 0.2971 0.0000
vn -0.6680 0.3268 0.6685
vn -0.3724 0.8499 0.3726
vn -0.4664 0.8845 0.0000
vn -0.0009 0.2954 0.9554
vn -0.0005 0.2955 0.9553
vn 0.0000 0.2956 -0.9553
vn 0.0000 0.8845 -0.4665
vn 0.0005 0.2956 -0.9553
vn 0.0009 0.2958 -0.9553
vn 0.0010 0.2959 -0.9552
vn -0.0010 0.2950 0.9555
vn -0.0010 0.2952 0.9554
vn 0.0010 0.2962 -0.9551
vn -0.0010 0.2947 0.9556
g Cube_Cube_Material
usemtl Material
s off
f 175/1/1 83/2/1 107/3/1 85/4/1
f 94/5/1 15/6/1 78/7/1 169/8/1
f 109/9/1 91/10/1 147/11/1 55/12/1
f 112/13/2 88/14/2 2/15/2 16/16/2
f 89/17/1 106/18/1 54/19/1 145/20/1
f 86/21/2 108/22/2 11/23/2 1/24/2
f 99/25/3 150/26/3 58/27/3 7/28/3
f 98/29/1 13/30/1 62/31/1 153/32/1
f 96/33/1 14/34/1 70/35/1 161/36/1
f 156/37/3 99/25/3 7/28/3 61/38/3
f 164/39/3 101/40/3 6/41/3 69/42/3
f 172/43/4 103/44/4 5/45/4 77/46/4
f 19/47/1 104/48/1 171/49/1 79/50/1
f 18/51/1 102/52/1 163/53/1 71/54/1
f 17/55/1 100/56/1 155/57/1 63/58/1
f 97/59/5 154/60/5 64/61/5 8/62/5
f 95/63/5 162/64/5 72/65/5 9/66/5
f 93/67/6 170/68/6 80/69/6 10/70/6
f 88/71/7 174/72/7 82/73/7 2/74/7
f 83/2/1 84/75/1 111/76/1 107/3/1
f 148/77/3 92/78/3 4/79/3 53/80/3
f 75/81/1 76/82/1 19/47/1 15/6/1
f 67/83/1 68/84/1 18/51/1 14/34/1
f 59/85/1 60/86/1 17/55/1 13/30/1
f 113/87/5 120/88/5 25/89/5 22/90/5
f 108/22/2 112/13/2 16/16/2 11/23/2
f 54/91/1 55/92/1 24/93/1 23/94/1
f 115/95/3 148/77/3 53/80/3 21/96/3
f 117/97/3 115/95/3 21/96/3 26/98/3
f 145/20/1 54/19/1 23/99/1 114/100/1
f 24/93/1 116/101/1 118/102/1 28/103/1
f 28/104/1 118/105/1 149/106/1 60/86/1
f 23/94/1 24/93/1 28/103/1 27/107/1
f 146/108/5 113/87/5 22/90/5 56/109/5
f 150/26/3 117/97/3 26/98/3 58/27/3
f 114/100/1 23/99/1 27/110/1 119/111/1
f 62/112/1 63/113/1 32/114/1 31/115/1
f 123/116/3 156/37/3 61/38/3 29/117/3
f 63/58/1 155/57/1 124/118/1 32/119/1
f 32/114/1 124/120/1 126/121/1 36/122/1
f 153/32/1 62/31/1 31/123/1 122/124/1
f 36/125/1 126/126/1 157/127/1 68/84/1
f 31/115/1 32/114/1 36/122/1 35/128/1
f 154/60/5 121/129/5 30/130/5 64/61/5
f 158/131/3 125/132/3 34/133/3 66/134/3
f 122/124/1 31/123/1 35/135/1 127/136/1
f 70/137/1 71/138/1 40/139/1 39/140/1
f 131/141/3 164/39/3 69/42/3 37/142/3
f 71/54/1 163/53/1 132/143/1 40/144/1
f 40/139/1 132/145/1 134/146/1 44/147/1
f 161/36/1 70/35/1 39/148/1 130/149/1
f 44/150/1 134/151/1 165/152/1 76/82/1
f 39/140/1 40/139/1 44/147/1 43/153/1
f 162/64/5 129/154/5 38/155/5 72/65/5
f 166/156/3 133/157/3 42/158/3 74/159/3
f 130/149/1 39/148/1 43/160/1 135/161/1
f 78/162/1 79/163/1 48/164/1 47/165/1
f 174/72/8 141/166/8 50/167/8 82/73/8
f 79/50/1 171/49/1 138/168/1 48/169/1
f 169/8/1 78/7/1 47/170/1 140/171/1
f 48/164/1 138/172/1 142/173/1 52/174/1
f 52/175/1 142/176/1 173/177/1 84/75/1
f 47/165/1 48/164/1 52/174/1 51/178/1
f 170/68/9 139/179/9 45/180/9 80/69/9
f 140/171/1 47/170/1 51/181/1 143/182/1
f 139/179/10 144/183/10 49/184/10 45/180/10
f 105/185/11 90/186/11 3/187/11 12/188/11
f 92/189/11 110/190/11 20/191/11 4/192/11
f 90/193/5 146/108/5 56/109/5 3/194/5
f 110/190/11 105/185/11 12/188/11 20/191/11
f 55/12/1 147/11/1 116/195/1 24/196/1
f 60/86/1 149/106/1 100/56/1 17/55/1
f 27/107/1 28/103/1 60/197/1 59/198/1
f 121/129/5 128/199/5 33/200/5 30/130/5
f 120/88/5 152/201/5 57/202/5 25/89/5
f 119/111/1 27/110/1 59/85/1 151/203/1
f 152/201/5 97/59/5 8/62/5 57/202/5
f 101/40/3 158/131/3 66/134/3 6/41/3
f 151/203/1 59/85/1 13/30/1 98/29/1
f 13/30/1 17/55/1 63/58/1 62/31/1
f 125/132/3 123/116/3 29/117/3 34/133/3
f 68/84/1 157/127/1 102/52/1 18/51/1
f 35/128/1 36/122/1 68/204/1 67/205/1
f 129/154/5 136/206/5 41/207/5 38/155/5
f 128/199/5 160/208/5 65/209/5 33/200/5
f 127/136/1 35/135/1 67/83/1 159/210/1
f 160/208/5 95/63/5 9/66/5 65/209/5
f 103/44/3 166/156/3 74/159/3 5/45/3
f 159/210/1 67/83/1 14/34/1 96/33/1
f 14/34/1 18/51/1 71/54/1 70/35/1
f 133/157/3 131/141/3 37/142/3 42/158/3
f 76/82/1 165/152/1 104/48/1 19/47/1
f 43/153/1 44/147/1 76/211/1 75/212/1
f 137/213/12 172/43/12 77/46/12 46/214/12
f 136/206/5 168/215/5 73/216/5 41/207/5
f 135/161/1 43/160/1 75/81/1 167/217/1
f 106/18/1 109/9/1 55/12/1 54/19/1
f 168/215/5 93/67/5 10/70/5 73/216/5
f 167/217/1 75/81/1 15/6/1 94/5/1
f 15/6/1 19/47/1 79/50/1 78/7/1
f 141/166/13 137/213/13 46/214/13 50/167/13
f 84/75/1 173/177/1 87/218/1 111/76/1
f 51/178/1 52/174/1 84/219/1 83/220/1
f 143/182/1 51/181/1 83/2/1 175/1/1
f 144/183/14 176/221/14 81/222/14 49/184/14
f 176/221/15 86/223/15 1/224/15 81/222/15
s 1
f 110/190/16 92/189/17 91/10/18 109/9/19
f 146/108/20 90/193/21 89/17/22 145/20/23
f 174/72/24 88/71/25 87/218/26 173/177/27
f 108/22/28 86/21/29 85/4/30 107/3/31
f 170/68/32 93/67/33 94/5/23 169/8/23
f 162/64/20 95/63/20 96/33/23 161/36/23
f 154/60/20 97/59/20 98/29/23 153/32/23
f 150/26/34 99/25/34 100/56/35 149/106/35
f 158/131/34 101/40/34 102/52/35 157/127/35
f 166/156/34 103/44/36 104/48/35 165/152/35
f 90/186/21 105/185/16 106/18/19 89/17/22
f 112/13/28 108/22/28 107/3/31 111/76/31
f 105/185/16 110/190/16 109/9/19 106/18/19
f 88/14/25 112/13/28 111/76/31 87/218/26
f 120/88/20 113/87/20 114/100/23 119/111/23
f 148/77/34 115/95/34 116/195/35 147/11/35
f 115/95/34 117/97/34 118/225/35 116/226/35
f 152/201/20 120/88/20 119/111/23 151/203/23
f 128/199/20 121/129/20 122/124/23 127/136/23
f 156/37/34 123/116/34 124/118/35 155/57/35
f 123/116/34 125/132/34 126/227/35 124/228/35
f 160/208/20 128/199/20 127/136/23 159/210/23
f 136/206/20 129/154/20 130/149/23 135/161/23
f 164/39/34 131/141/34 132/143/35 163/53/35
f 131/141/34 133/157/34 134/229/35 132/230/35
f 168/215/20 136/206/20 135/161/23 167/217/23
f 172/43/37 137/213/38 138/168/35 171/49/35
f 144/183/39 139/179/40 140/171/23 143/182/23
f 137/213/38 141/166/41 142/231/35 138/232/35
f 176/221/42 144/183/39 143/182/23 175/1/23
f 113/87/20 146/108/20 145/20/23 114/100/23
f 92/78/17 148/77/34 147/11/35 91/10/18
f 117/97/34 150/26/34 149/106/35 118/105/35
f 97/59/20 152/201/20 151/203/23 98/29/23
f 121/129/20 154/60/20 153/32/23 122/124/23
f 99/25/34 156/37/34 155/57/35 100/56/35
f 125/132/34 158/131/34 157/127/35 126/126/35
f 95/63/20 160/208/20 159/210/23 96/33/23
f 129/154/20 162/64/20 161/36/23 130/149/23
f 101/40/34 164/39/34 163/53/35 102/52/35
f 133/157/34 166/156/34 165/152/35 134/151/35
f 93/67/33 168/215/20 167/217/23 94/5/23
f 139/179/40 170/68/32 169/8/23 140/171/23
f 103/44/36 172/43/37 171/49/35 104/48/35
f 141/166/41 174/72/24 173/177/27 142/176/35
f 86/223/29 176/221/42 175/1/23 85/4/30
